PathFileType	4	(X/Y/Z)	C:\Users\Basilio\Documents\Thesis Gigler\squatting_fais\c3dfiles\047\SLS_pre_back2\markers_experimental.trc
DataRate	CameraRate	NumFrames	NumMarkers	Units	OrigDataRate	OrigDataStartFrame	OrigNumFrames
200.000000	200.000000	4	62	mm	200.000000	1133	1295
Frame#	Time	FHD			LBHD			RBHD			C7			T10			CLAV			LSHO			LUUPA			LMUPA			LDUPA			LLEP			LMEP			LRAD			LUL			LRFIN			RSHO			RUPA1			RMUPA			RDUPA			RLEP			RMEP			RUL			RUFIN			LASI			RASI			USACR			LSACR			RSACR			LTHI1			LTHI2			LTHI3			LTHI4			LLFC			LMFC			LTIB1			LTIB2			LTIB3			LTIB4			LLMAL			LMMAL			LMT1			LMT2			LMT5			RTHI			RTHI2			RTHI3			RTHI4			RLFC			RMFC			RTIB1			RTIB2			RTIB3			RTIB4			RLMAL			RHEE			RMT1			RMT2			RMT5			RMMAL			RRAD			*60			*61			
		X1	Y1	Z1	X2	Y2	Z2	X3	Y3	Z3	X4	Y4	Z4	X5	Y5	Z5	X6	Y6	Z6	X7	Y7	Z7	X8	Y8	Z8	X9	Y9	Z9	X10	Y10	Z10	X11	Y11	Z11	X12	Y12	Z12	X13	Y13	Z13	X14	Y14	Z14	X15	Y15	Z15	X16	Y16	Z16	X17	Y17	Z17	X18	Y18	Z18	X19	Y19	Z19	X20	Y20	Z20	X21	Y21	Z21	X22	Y22	Z22	X23	Y23	Z23	X24	Y24	Z24	X25	Y25	Z25	X26	Y26	Z26	X27	Y27	Z27	X28	Y28	Z28	X29	Y29	Z29	X30	Y30	Z30	X31	Y31	Z31	X32	Y32	Z32	X33	Y33	Z33	X34	Y34	Z34	X35	Y35	Z35	X36	Y36	Z36	X37	Y37	Z37	X38	Y38	Z38	X39	Y39	Z39	X40	Y40	Z40	X41	Y41	Z41	X42	Y42	Z42	X43	Y43	Z43	X44	Y44	Z44	X45	Y45	Z45	X46	Y46	Z46	X47	Y47	Z47	X48	Y48	Z48	X49	Y49	Z49	X50	Y50	Z50	X51	Y51	Z51	X52	Y52	Z52	X53	Y53	Z53	X54	Y54	Z54	X55	Y55	Z55	X56	Y56	Z56	X57	Y57	Z57	X58	Y58	Z58	X59	Y59	Z59	X60	Y60	Z60	X61	Y61	Z61	X62	Y62	Z62	

1134	5.665	-165.1024932861328	1747.13671875	-1128.847045898438	-340.8214721679688	1700.673461914063	-1151.26953125	-315.3610534667969	1705.580444335938	-1004.723266601563	-355.5027160644532	1524.46240234375	-1079.700561523438	-364.3519897460938	1214.461303710938	-1047.742309570313	-204.1846618652344	1469.34814453125	-1108.536499023438	-279.7492370605469	1477.31689453125	-1260.390014648438	-200.3766784667969	1340.895751953125	-1359.850219726563	-162.0885314941407	1371.78466796875	-1356.725341796875	-134.6253967285157	1319.988647460938	-1372.911254882813	-60.62056732177736	1317.423217773438	-1377.237060546875	-70.10948944091798	1263.050659179688	-1312.84521484375	87.17812347412111	1442.658325195313	-1207.593627929688	133.6235504150391	1381.504516601563	-1200.347778320313	175.16015625	1466.099243164063	-1200.453735351563	-239.857406616211	1504.329956054688	-947.322448730469	-128.7412414550782	1382.12060546875	-850.7217407226565	-93.72755432128908	1408.514038085938	-871.6195068359377	-62.27503204345705	1359.979614257813	-855.228942871094	11.55328941345215	1357.357788085938	-873.3425903320315	-6.703894615173342	1285.831909179688	-926.6657714843752	173.0880279541016	1409.298950195313	-1076.746704101563	139.0559844970703	1486.867431640625	-1117.824340820313	-197.5306701660157	982.1611328125002	-1133.381103515625	-188.3097381591797	1013.60888671875	-905.1955566406252	-372.7385864257813	1081.932006835938	-1025.855590820313	-379.0179443359376	1048.010498046875	-1049.93896484375	-374.9096374511719	1054.919555664063	-992.089050292969	-292.0705261230469	829.5203857421877	-1189.803100585938	-260.1547851562501	751.6071166992189	-1185.342651367188	-211.471908569336	754.1116943359376	-1176.24169921875	-290.5429687500001	699.3011474609376	-1175.428955078125	-320.8628540039063	530.0861816406251	-1129.747924804688	-279.7777404785157	525.7451171875001	-1013.571899414063	-289.4253234863282	346.9642639160157	-1032.59619140625	-304.9330444335938	298.8948059082032	-1103.885375976563	-285.2079162597657	297.3511352539063	-1060.275634765625	-299.0593872070313	221.9615478515626	-1026.076049804688	-353.6815795898438	123.8337783813477	-1063.030639648438	-327.2058410644532	143.3808135986328	-979.5581054687502	-209.7626953125001	65.93638610839845	-994.5983886718752	-210.1690368652344	61.0032081604004	-1039.224243164063	-259.0642700195313	47.42323684692384	-1082.85546875	-251.3061981201172	844.2650146484377	-786.8619384765627	-203.6090393066407	798.3393554687502	-775.0791625976565	-173.744140625	801.951354980469	-786.8676757812502	-216.5266723632813	716.5478515625001	-760.2874755859376	-196.3177795410157	585.1687622070314	-758.1457519531251	-184.986068725586	542.3197631835939	-881.6276855468752	-282.2577209472657	495.3260192871095	-755.3045043945314	-381.6353454589844	537.5436401367189	-734.3118896484376	-365.3279724121094	493.2716064453126	-734.0764160156251	-406.9322814941407	459.2540283203126	-762.2886962890626	-572.9182128906251	477.4172363281251	-741.2669067382814	-604.3903198242189	513.0717163085939	-808.327819824219	-599.7077026367189	307.4260864257813	-779.2813720703127	-601.8780517578126	311.1271362304688	-733.9557495117189	-641.9840698242189	365.2053222656251	-696.4300537109376	-544.2363891601564	432.8887023925782	-817.119567871094	110.6143112182617	1412.908569335938	-1115.820068359375	nan	nan	nan	nan	nan	nan	
1135	5.67	-165.4270629882813	1746.968872070313	-1129.677368164063	-341.2668457031251	1700.585205078125	-1151.806518554688	-315.5741271972657	1705.598266601563	-1005.208557128906	-356.0028686523438	1524.387451171875	-1080.10546875	-365.0783996582032	1213.990112304688	-1047.699951171875	-204.7557525634766	1469.32177734375	-1108.907958984375	-280.4916381835938	1477.15380859375	-1260.749389648438	-200.9362335205079	1340.735229492188	-1360.141235351563	-162.6072692871094	1371.615600585938	-1357.083251953125	-135.2397766113282	1319.87109375	-1373.137817382813	-61.12640380859376	1317.207885742188	-1377.655395507813	-70.36760711669923	1262.909301757813	-1313.181030273438	86.50218963623048	1442.7177734375	-1208.075317382813	133.1399536132813	1381.686279296875	-1200.891845703125	174.7111511230469	1466.2578125	-1201.10693359375	-240.3710021972657	1504.293334960938	-947.6028442382815	-129.3818817138672	1382.179931640625	-850.8760375976565	-93.9338836669922	1408.557739257813	-872.1130371093752	-62.78071975708009	1359.86328125	-855.3037719726565	11.29816055297852	1357.526977539063	-873.8684082031252	-7.165010929107668	1285.976318359375	-927.0142822265627	172.5433044433594	1409.498168945313	-1077.207153320313	138.6682281494141	1487.005126953125	-1118.430908203125	-197.7826690673829	982.1794433593752	-1133.364135742188	-188.0528259277344	1013.485595703125	-905.3419189453127	-372.7849731445313	1081.983154296875	-1025.501098632813	-379.1785278320313	1048.09521484375	-1049.566162109375	-374.9431457519532	1054.914916992188	-991.7896728515627	-292.0001525878907	829.8677978515627	-1189.776245117188	-260.2519836425782	751.8553466796876	-1185.310791015625	-211.5108337402344	754.4176635742189	-1176.284790039063	-290.6656188964844	699.5076904296876	-1175.427612304688	-320.9658508300782	530.1391601562501	-1129.898681640625	-279.5523071289063	525.7639770507814	-1013.866638183594	-289.3071899414063	347.0378112792969	-1033.1318359375	-304.9791870117188	299.1600036621094	-1104.4072265625	-285.0982055664063	297.6454772949219	-1060.861328125	-299.0103149414063	221.6302947998047	-1027.0087890625	-353.6732788085938	123.9237213134766	-1063.210815429688	-326.9916076660157	143.1989898681641	-979.8662719726565	-209.8663024902344	66.11025238037111	-994.7913818359377	-208.6609649658204	61.41023635864259	-1039.344604492188	-259.0903930664063	47.24105072021485	-1082.987426757813	-250.8416290283204	844.179626464844	-786.7475585937502	-203.2105712890626	798.4631347656252	-775.4182739257815	-173.2673645019532	801.9144287109377	-786.9048461914065	-215.9905090332032	716.5511474609376	-760.4046630859376	-195.7619934082032	585.0494995117189	-758.1346435546876	-184.5996551513672	542.3190917968751	-881.601257324219	-281.8580322265626	495.2280578613282	-755.0545043945314	-381.3215332031251	537.7165527343751	-734.3834228515626	-364.9647521972657	493.1663208007814	-733.8921508789064	-406.631072998047	459.2633056640626	-761.8259887695314	-572.5131835937501	477.2337951660157	-740.9300537109376	-603.6116943359376	513.2523803710939	-808.1585083007815	-599.4862060546876	307.0829772949219	-778.6247558593752	-601.2629394531251	311.1785278320313	-733.5983276367189	-641.3630371093751	364.9642944335938	-696.1159667968751	-543.7765502929689	432.7511291503907	-816.8043212890627	110.4360275268555	1412.962280273438	-1116.270629882813	nan	nan	nan	nan	nan	nan	
1136	5.675	-165.6745147705078	1746.999267578125	-1130.41748046875	-342.1120910644532	1700.88037109375	-1152.145629882813	-316.1374511718751	1705.611938476563	-1005.600524902344	-356.4872436523438	1524.274536132813	-1080.458740234375	-364.5342712402344	1214.1875	-1047.62060546875	-205.4469909667969	1469.270629882813	-1109.30029296875	-281.2282409667969	1476.909301757813	-1261.051391601563	-201.3683471679688	1340.445678710938	-1360.444702148438	-163.0328826904297	1371.230834960938	-1357.47900390625	-135.7364807128907	1319.619995117188	-1373.35107421875	-61.54971313476564	1317.031494140625	-1378.040283203125	-70.66529083251955	1262.64404296875	-1313.50048828125	85.87194061279298	1442.800659179688	-1208.606567382813	132.4105987548828	1381.943359375	-1201.196166992188	173.9671325683594	1466.472900390625	-1201.493896484375	-240.7320251464844	1504.421875	-948.2167968750002	-129.6845703125	1382.197021484375	-851.2324218750002	-94.22576904296876	1408.621826171875	-872.4772949218752	-63.11889648437501	1359.861206054688	-855.782165527344	10.85172748565674	1357.611694335938	-874.271667480469	-7.684786796569826	1286.238891601563	-928.0867919921877	171.8700256347657	1409.721313476563	-1077.638793945313	138.3338317871094	1487.17626953125	-1119.173217773438	-198.0037841796876	982.272888183594	-1133.477661132813	-187.9222869873047	1013.501098632813	-905.4421386718752	-372.8637390136719	1081.951171875	-1025.154541015625	-379.2952880859376	1048.051391601563	-1049.22021484375	-374.8979797363282	1054.931274414063	-991.5359497070315	-292.4144287109376	829.8889770507815	-1189.610229492188	-260.4038085937501	752.0140991210939	-1185.209716796875	-211.5892486572266	754.6276855468751	-1176.35498046875	-290.7372741699219	699.6464233398439	-1175.460815429688	-321.0708923339844	530.2769165039064	-1130.080688476563	-279.2540893554688	525.8101806640626	-1014.23681640625	-289.3533020019532	346.9768371582032	-1033.253662109375	-305.4140014648438	299.0877380371094	-1104.6630859375	-285.1427307128907	297.5751953125001	-1061.1630859375	-298.8661804199219	222.1448974609376	-1027.050048828125	-353.7557678222657	123.9117660522461	-1063.58984375	-326.8731079101563	143.3683624267578	-980.3079833984377	-209.8445587158204	66.17800140380861	-994.8892211914065	-208.5357208251954	61.44935989379884	-1039.509643554688	-259.0808105468751	47.10242462158204	-1083.129150390625	-250.4152374267579	844.0796508789065	-786.7080078125002	-202.7679595947266	798.3195800781252	-775.3427734375002	-172.9579162597657	801.843200683594	-786.8498535156252	-215.6616516113282	716.4126586914064	-760.1436767578126	-195.2827911376954	584.9822998046876	-758.1599121093751	-184.2074279785157	542.1737670898439	-881.6082153320315	-281.3456115722657	495.2590332031251	-755.1774291992189	-380.4434204101563	537.3212280273439	-734.0298461914064	-364.6550598144532	493.161834716797	-733.4834594726564	-406.2715454101564	459.2170410156251	-761.3095092773439	-571.8183593750001	477.1206665039064	-740.8685913085939	-603.2662963867189	513.0044555664064	-807.8318481445315	-598.8289794921876	306.8317871093751	-778.1466064453127	-600.7771606445314	311.0943908691407	-733.1759033203126	-640.8509521484376	364.7705078125001	-695.7858276367189	-543.3669433593751	432.5848999023439	-816.4718017578127	106.875228881836	1414.329833984375	-1116.298583984375	nan	nan	nan	nan	nan	nan	
1137	5.68	-166.0173492431641	1746.882202148438	-1130.830444335938	-342.2626953125001	1700.536865234375	-1152.798950195313	-316.3607788085938	1705.536865234375	-1006.494079589844	-356.9733276367188	1524.203491210938	-1080.9423828125	-364.7615051269532	1214.121948242188	-1047.519653320313	-205.9902343750001	1469.142578125	-1109.556396484375	-281.8398132324219	1476.63134765625	-1261.483276367188	-201.8811645507813	1340.153076171875	-1360.803344726563	-163.516845703125	1370.905029296875	-1357.85498046875	-136.186767578125	1319.485961914063	-1373.81298828125	-62.11971664428712	1316.912231445313	-1378.401733398438	-71.09023284912111	1262.236328125	-1313.967163085938	85.30276489257814	1442.9716796875	-1209.170166015625	131.8307647705078	1382.26806640625	-1201.78955078125	173.1225280761719	1466.62646484375	-1201.925659179688	-241.1767120361329	1504.498168945313	-948.6541748046877	-129.8236541748047	1382.274536132813	-851.7188720703127	-94.78784179687501	1408.601196289063	-872.846130371094	-63.35037994384767	1359.939575195313	-856.3839111328127	10.45543956756592	1357.852416992188	-874.709655761719	-7.766548633575441	1286.239501953125	-927.932800292969	171.5598602294922	1409.982788085938	-1078.44921875	137.480697631836	1487.391235351563	-1119.568725585938	-198.1748199462891	982.3525390625002	-1133.453002929688	-187.7208251953125	1013.44140625	-905.3624267578127	-372.9231872558594	1081.890258789063	-1024.826049804688	-379.3236389160157	1048.031127929688	-1048.837890625	-374.7426757812501	1054.8203125	-991.2188720703127	-292.2336120605469	830.3531494140627	-1189.732666015625	-260.5915222167969	752.2022705078126	-1185.144287109375	-211.8018493652344	754.8072509765626	-1176.303344726563	-290.9195861816407	699.8893432617189	-1175.41748046875	-321.1876525878907	530.4102783203126	-1130.213989257813	-279.1059265136719	525.7598876953126	-1014.640808105469	-289.0302734375001	347.0655822753907	-1033.83642578125	-305.6195373535157	299.1386413574219	-1104.9423828125	-285.2994384765626	297.7200622558594	-1061.64892578125	-298.8197937011719	222.3073883056641	-1027.3544921875	-353.8627929687501	123.9095458984375	-1063.916381835938	-326.7896728515626	143.595458984375	-980.7229003906252	-209.7928924560547	66.35467529296876	-995.1892700195315	-209.9776000976563	60.89944458007814	-1039.989624023438	-259.0361022949219	46.90005493164063	-1083.305786132813	-249.9858703613282	844.0176391601565	-786.7249145507815	-202.266830444336	798.2517089843752	-775.4296875000002	-172.3329772949219	801.7990722656252	-787.1661376953127	-215.0996246337891	716.2872314453126	-760.0996704101564	-194.9141540527344	584.9569091796876	-758.0372314453126	-183.7698516845703	542.0997924804689	-881.5692138671877	-280.8887329101563	495.2106323242189	-755.1566772460939	-379.9599609375001	537.2896118164064	-733.8632202148439	-364.2701416015626	493.1481933593751	-733.1329345703126	-405.8679809570314	459.1079101562501	-760.9268798828126	-571.2427978515626	476.9750366210939	-740.5894165039064	-602.7222900390626	512.7061157226564	-807.4918212890627	-598.3630981445314	306.4798278808594	-777.6561279296877	-600.4330444335939	310.9718627929688	-732.6768798828126	-640.3547363281251	364.6158752441407	-695.3302612304689	-542.8355102539064	432.4141845703126	-816.130065917969	106.2303466796875	1414.501342773438	-1116.925537109375	nan	nan	nan	nan	nan	nan	
